# xmcd CD database file
#
# Track frame offsets:
#	150
#	12342
#	26844
#	38642
#	51771
#	63027
#	83882
#	98480
#	113359
#	127390
#	142157
#	156822
#	170317
#	183565
#	193681
#	207856
#	218988
#	231510
#
# Disc length: 3280 seconds
#
# Revision: 0
# Processed by: cddbd v1.5.1PL2 Copyright (c) Steve Scherf et al.
# Submitted via: CDex 1.51
#
DISCID=fb0cce12
DTITLE=Ella Fitzgerald - The Jazz
DYEAR=2001
DGENRE=Jazz
TTITLE0=My baby likes to bebop
TTITLE1=Guilty
TTITLE2=It's only a paper moon
TTITLE3=You won't be satisfied
TTITLE4=Flying home
TTITLE5=Lover man
TTITLE6=The frim fram sauce
TTITLE7=Sentmental journey
TTITLE8=Black coffee
TTITLE9=How high the moon
TTITLE10=Asunday kind of love
TTITLE11=No sense
TTITLE12=I am just a lucky so-and-so
TTITLE13=Almost like being in love
TTITLE14=Basin street blues
TTITLE15=Robbins nest
TTITLE16=Can't help lovin'dat man
TTITLE17=Oh, Lady be good
EXTD=YEAR: 2001
EXTT0=
EXTT1=
EXTT2=
EXTT3=
EXTT4=
EXTT5=
EXTT6=
EXTT7=
EXTT8=
EXTT9=
EXTT10=
EXTT11=
EXTT12=
EXTT13=
EXTT14=
EXTT15=
EXTT16=
EXTT17=
PLAYORDER=
